<!-- Created with Inkscape (http://www.inkscape.org/) -->
<svg xmlns:rdf="http://www.w3.org/1999/02/22-rdf-syntax-ns#" xmlns="http://www.w3.org/2000/svg" height="100%" width="100%" version="1.1" xmlns:cc="http://creativecommons.org/ns#" xmlns:dc="http://purl.org/dc/elements/1.1/" viewBox="0 0 5335 5824.166">
<metadata>
<rdf:RDF>
<cc:Work rdf:about="">
<dc:format>image/svg+xml</dc:format>
<dc:type rdf:resource="http://purl.org/dc/dcmitype/StillImage"/>
<dc:title/>
</cc:Work>
</rdf:RDF>
</metadata>
<defs>
<radialGradient id="radialGradient3348" gradientUnits="userSpaceOnUse" cy="2510" cx="2390" gradientTransform="matrix(0.72447366,-0.03159282,0.03384277,0.80897201,4108.3496,3018.9428)" r="3650">
<stop stop-color="#FFF" offset="0"/>
<stop stop-opacity="0.74901961" stop-color="#FFF" offset="0.735"/>
<stop stop-opacity="0.49803922" stop-color="#FFF" offset="0.899"/>
<stop stop-opacity="0" stop-color="#FFF" offset="1"/>
</radialGradient>
</defs>
<rect ry="0" height="5820" width="5340" y="2080" x="3260" fill="url(#radialGradient3348)"/>
<path style="enable-background:new;" d="m438,4380,0,44.6,4470,0,0-44.6-4470,0z" fill="#617b71"/>
<path style="enable-background:new;" d="m3560,3350c16-2.95,37.8-6.97,48.5-8.95,30.6-5.66,32.9-6.92,31.6-17.3-1.7-13.6-15.7-72.3-22.6-94.5-3.29-10.7-4.86-13.1-8.37-13.1-3.05,0-5.85,3.4-15.9,19.3-4.72,7.47-16.8,25.4-26.8,39.9-47.2,68.2-47.9,69.3-47.9,75.4,0,6.88,0.361,6.87,41.5-0.719zm148,195c-17.8-8.54-34.7-48.1-52-122-3.08-13.1-5.82-24.7-6.1-25.6-0.818-2.95-3.33-4.94-6.23-4.94-3.34,0-122,20.9-139,24.5-6.82,1.43-14.6,3.59-17.3,4.8l-4.93,2.2-12.1,25c-27.4,56.9-38.8,77.5-48.3,87.5-7.39,7.71-11.3,9.13-23,8.36-14.7-0.978-26.4-7.94-30.1-17.9-2.42-6.57-1.44-17.1,2.67-28.9,1.78-5.14,10.2-23.6,18.7-41,8.51-17.4,16.3-34.1,17.3-37.2,1.45-4.36,1.88-8.65,1.9-19.2,0.031-19.4,2.06-23.1,17.8-32.7,11.5-6.95,18.6-16.1,49.7-63.9,52.5-80.6,89.2-133,117-165,16.4-19.4,24-24.7,34.9-24.7,7.16,0,12.6,2.31,19,8.01,9.84,8.82,12.9,17.3,22.5,62.7,11.3,53.4,18.3,84.6,29,129,21.7,90.5,34.6,136,48.4,173,8.05,21.6,9.77,33.4,6.08,41.9-2.81,6.43-10.6,14.1-16.5,16.2-7.03,2.48-23.6,2.36-29-0.231zm-1310-218c48.5-2.43,69.8-5.44,92.4-13.1,21.5-7.25,35.6-15.8,50.2-30.4,15.1-15.1,18.4-22.4,15.8-35.1-4.7-23.3-20.6-43.3-51-64.1-34.5-23.6-71.3-35.1-119-37-19.8-0.821-19.3-1.14-17.1,11,5.9,32.3,3.37,97.5-6.08,157-0.882,5.54-1.34,10.8-1.01,11.6,0.717,1.94-1.65,1.93,35.8,0.061zm-75.6,198c-14.3-5.27-16.3-13.9-19.7-83-0.645-13.1-1.18-39.7-1.19-59.1-0.018-38.9,0.788-50.1,6.98-96.5,4.51-33.7,5.22-57.2,3.25-106-2.56-63.9-2.05-70.6,6.26-80.3,6.62-7.8,11.7-10.3,22.1-10.8,28.1-1.39,103,6.63,125,13.4,40.3,12.3,98.6,50.5,122,80.1,28.6,35.6,35.8,82.7,17.5,114-5.77,9.95-23.8,27.9-37.7,37.5-19,13.1-40.5,23.9-64.1,32.1-6,2.09-11.5,4.27-12.2,4.88-0.695,0.598-1.26,2.62-1.26,4.51,0,5.04,5.62,9.47,24.5,19.3,29.5,15.4,52.2,30.4,87.5,57.8,29,22.5,39.9,36.9,36.8,48.6-1.29,4.86-9.04,13.4-15,16.5-5.68,2.99-11.1,3.16-17.6,0.592-6.08-2.4-12.5-6.93-33.7-24-57-45.8-115-77.2-186-100-19-6.22-27.4-8.29-29.8-7.35-3.31,1.32-3.99,8.46-3.37,35,0.33,14,1.11,33.3,1.74,43.1,0.625,9.68,0.951,24,0.725,31.6-0.454,15.6-2.02,20.6-7.53,24.7-6.85,5.04-18,6.7-25.7,3.85zm-1120,716c-63.2-6.3-127-38.4-162-94.7-22.4-33.3-27.1-75.2-22.3-115,8.78-101,78.9-192,169-228,43.2-16.2,90.2-11.8,135-10.7,51.3,4.45,106,24.2,136,70.3,31,49.7,30.8,113,21.5,169-19.2,93.6-87.5,179-178,204-32.5,6.98-66.1,6.4-99.1,4.83zm73.6-52.6c40.9-5.89,78.8-29.7,104-63.2,24.2-31,40.7-68.7,48.1-108,7.99-64.4-6.8-146-69.8-162-96.5-25.7-193,11.2-242,92.8-26.6,47.3-40.1,113-23.1,160,34,69.6,123,83.4,183,79.6zm2500-339c-6.07,26.1-5.91,54.3-7.04,80.9l-0.96,140,1,55c0,8.64,1.03,18.6-1.43,27-2.47,8.42-20.6,7.75-27.6,8.41-25.8,2.5-74-1.84-74,35.2l1.48,12.4c9.56,25,44.5,18.2,64.5,17.6l148-8.29h53c7.23,0,17.2,1.82,24-1.05,19.9-8.39,21-50.4,3.91-62-5.05-3.44-12.2-2.23-17.9-2.23h-103l1-206,2.91-60.2c0.51-7.67-0.94-20.1,3.1-26.8,4.34-7.25,27.8-1.12,35-0.332l20,2.16c24.7,1.79,79.2,12.8,81.9-25.8l-0.37-12.4c-5.15-29.7-45.6-28.7-68.5-30.1-63.1-3.65-126-8.92-189-7.31-22.4,0.56-56.2-3.43-65.4,23.9-5.45,16,2.7,35.3,18.4,40.7,19,6.56,42.4,2.75,62,1.86,11.3-0.519,24,0.612,35-2.12zm-742-68.1c-22.5,2.49-31,27.8-30.2,48.2-2.78,42.8-3.6,85.9-5.52,129-4.96,61.8-12.7,129-51.3,178-18.5,25-49.1,38.6-79.3,34.7-39,0.744-77.9-18.4-99.3-52.8-26-37.5-27.7-85.1-26.4-130-0.971-56.1-1.91-112-4.36-168-1.19-11.5,0-25.7-12.1-31.9-19.9-13-49.8-0.695-53.1,24.3-12.7,77.9-6.28,158-0.922,236,4.25,53.4,22.1,110,66.2,142,57.9,42.7,135,47.6,202,29.2,59.4-20.3,95.5-80.6,113-140,22.7-75,18.1-155,20.1-232-1.48-22,1.5-50.3-18.6-64.2-6.13-3.8-13.6-4.55-20.5-3.37zm1150,69.1c11.2,92.3,14,187,18,280,1.32,31.2-13.8,82.7,28,90l14-0.135c37.7-7.04,30-55.4,30-83.5,0-96-16-192-16-287l81,4.11,64,2.55c16.7,2.27,44.5,7.31,52-12.9h2l20.1,28,45.8,63.3c24.5,36.8,43.2,76.5,71,111,8.77,10.9,17.8,24,29.1,32.2-17.6,25.1-32.1,54-47,80.9-7.14,12.9-18.1,27.7-20.5,42.5-4.86,30,35.7,43.2,56.5,30.7,11.6-6.89,17.7-20.4,24.4-31.7l37.6-61.2c44.2-73.1,79-153,116-229l24.4-46.7c8.97-14.4,20.6-30.2,23-47.7,4.93-35.5-45.1-48-64.2-23.9-33.3,42-56.4,96.9-79.7,145-11.3,23.4-27.8,48.5-34.8,73.7h-2l-27.6-38.4c-27-44.9-53.3-88.4-84.1-131l-30-39.4c-5.75-7.27-11.8-16-20.4-19.7-9.06-3.99-22.9-4.73-32-0.788l-17,9.35c-6.91,2.06-15.9,1.1-23,0.778-70.2-3.19-141-7.22-211-7.22l-142-4.15c-20.8-0.01-42.5-4.82-50.4,21.8-7.17,24.1,13.9,37.2,33.4,41.3,43,8.88,87.3,7.47,131,7.47m-1830,246c-20.4-60.6-35.8-122-48.7-186-8.76-34.4-13.4-70.2-25.7-104-8.51-28.9-47.1-38.6-67.3-17.1-28.8,30.2-32.4,75.3-42.9,114-8.76,45.4-20.8,90.1-34.9,134-15.4,52.7-35.7,105-36.4,161-4.82,33.6,41.7,49.4,62.6,27.1,18.3-21.3,20.1-52,26.3-78.6,10.4-56.8,28.2-112,42.4-167,5.61-8.22,5.13-52,9.29-26,18.5,83.2,40.9,166,69.4,246,6.81,21.4,28.3,36.6,49.9,28.8,31-4.59,39.8-40.9,50.3-66.2,26.9-69.9,51.9-141,80.4-210,6.47-9.37,5.66,14.7,8.72,21.1,14.9,67.9,27.8,136,44.7,203,8.4,23.2,13,56.4,39.9,64,27.5,9.85,61-15.9,47-46.8-21.9-79.2-49.7-157-62.6-239-7.88-42.7-13.4-86-23.1-129-6.08-24.6-20.2-56.4-49.1-55.2-31.1,0.698-44.1,35.4-50.8,61.7-20.5,85.3-49.7,168-84.8,248-1.71,4.67-3.28,9.39-4.61,14.2zm-588-1.04c-6.86-41-26.1-78.5-33-119-12.6-53.7-23.4-108-37.7-162-5.69-29.5-40.7-46.7-64.9-28.9-28.9,24.1-33.9,64.7-42.9,99.8-11.4,46.8-20.2,94.3-36,140-17.6,58.1-39.6,116-39.9,177-3.09,27.4,30.9,40.5,51.8,30,24.6-10.3,27-41.8,32.9-64.9,9.04-59,27.9-116,42.5-173,5.54-13.4,9.08-44.1,11.6-47.5,12.6,65.2,33.4,129,51,192,9.85,30.9,13.6,69.5,42.8,88.3,28.5,11.6,57.5-11.9,66.7-39.3,35.1-78.2,61.3-161,93.3-240,10.4,30,12.8,62.1,20.8,92.9,11.9,55.2,25,110,39.8,165,5.76,29.8,38.8,46,64.9,32.3,25.2-13.9,11.9-46.9,5.86-68.9-22-71.5-43.9-143-56.1-217-10.5-48.5-11.3-99.4-29.6-145-7.75-24.7-35.9-42.5-59.6-29.4-28.4,17.5-32,55.3-40.2,85.3-20.8,78.5-49,155-80.7,229zm1460-194c29.4,40,64.9,76.4,97.9,113,48.9,54.5,99.7,108,154,157l17,15.3c22.9,20.4,61.2,58.8,94,37.8,10.3-6.62,13.4-19,15.2-30.6,3.88-24.4,4.75-50,4.75-74.7l1-183c0-45.1,0.02-94.4-20-136-4.39-9.11-10.4-17.7-19-22.9-16.8-10-46.3-6.92-53.2,14.6-9.02,28.1,8.33,63.5,12.8,91.3,5.27,32.6,5.06,65.7,6.45,98.6,2.11,50.1,3.96,100,3.96,150-95.4-79.8-181-171-259-269-20.2-25.1-38.8-51.6-61.1-74.7-9.85-10.2-21.9-22-37-20.5l-15,4.19c-36.6,15.4-23.2,56.4-23,89l4.96,110c1.85,43.8,0.06,88.1-0.97,132l-2.08,65.4c-1.09,16.5-3.73,38.2,2.57,54,9.67,24.2,49.3,19.6,61.9,2.08,17.2-24.1,11.6-62.1,11.6-90.3l-1-90.3,3-143m-2290-232c-14.9,6.13-28.5,17.9-45.5,12.3-54.8-6.01-113,2.24-159,35.3-55.6,38.9-102,90.9-140,147-31.7,48.8-55.4,106-53,166-2.06,36.2,4.21,73.8,25.3,104,36,59.1,103,93.1,170,93,80.5,1.56,159-31.5,222-81.5,18.4-12.2,25.6-39.4,11.4-57.8-14.2-21.9-43.1-22.4-63.5-10.6-32.6,17.7-62.3,41.3-97.5,54.1-45.5,19.6-102,21.4-142-12.8-33.8-25.6-47.2-72.3-37.2-114,15-67.9,57.2-124,103-174,37.4-37.8,84.9-74.3,140-68.9,31.5-0.294,36,39.4,59.4,52.9,25.6,14.9,65.5-1.12,65.6-34.4-0.083-29.7,1-60.7-8.71-89-7.01-22.1-30.6-25.1-49.6-21.3zm1110-510c-6.76,81.4-9.46,163-7.33,245-0.542,18.7,2.53,37.5-0.389,55.8-16.2,16.7-44.3,7.44-65.3,13-18.5,0.543-36.2,16.7-33.9,36.8,2.32,22.8,26.6,32.1,46.1,29.8,73.6-4.85,147-10.3,221-8.6,17.2,0.671,34.8-11.7,35.3-30.6,2.66-18.9-10.9-40.9-31.2-37.1-33,2.1-66.1,0.711-99.1,1.11,0.568-88.9,0.615-177,1.54-267,1.85-15.3-1.65-41.4,19.5-31.3,35.5,0.924,72.5,14.5,107,0.389,23.6-13.1,15.4-56.5-11.6-58.9-32.6-7.29-66.2-6.7-99.2-10.5-48.7-3.42-97.5-3.12-146-4.2-18.6,0.53-43.2,4.82-48.1,27.2-6.94,23.1,14,43.6,35.6,41.8,25.4-0.286,50.9-1.93,76.3-2.72zm-537-64.8c-26.3,5.88-27.4,39-29,61.4-3.12,59.4-2.91,119-0.679,178,3.49,58.7,16.1,122,61.4,163,51.3,44.9,124,52.9,188,40.5,51.4-12.2,93.2-53.1,113-103,27.8-67.6,32.8-142,34.2-215-0.906-28.2,2.07-56.2,1.42-84.3,1.45-19.6-11.6-39.9-31.4-41.1-24.2-4.2-39.7,20.8-40.6,43-3.36,47.1,0.53,94.6-3.47,142-4.66,62.5-16.7,129-57.3,177-30,34.9-82.4,35.4-121,17.5-40.4-18.3-63.9-61.9-69.3-106-6.99-52-2.98-105-4.97-157-0.811-30.3-0.506-60.7-2.4-90.9-2.47-18.2-20.9-30.1-37.8-26.1zm2410,293c64.9,51.4,119,121,198,150,19.6,7.69,48.8,10.1,59.3-13.3,12.9-26.9-16.1-47.3-37.7-53.7-40.5-18.5-72.9-51.1-107-79.8-19.7-18.1-41.1-34.4-59.6-53.7-4.12-13.1,13.6-18.3,20.3-27.1,41-36.1,78.2-76.4,117-115,19.5-20.8,43.7-40.2,51.4-69.3,3.54-30.8-41.8-46.6-60.2-24.4-46.4,44.5-90.8,91.2-136,137-15.4,15.1-31.2,29.8-47.8,43.7,2.12-52.6,4.69-105,6.66-158,2.06-18.6-9.67-36.5-28-38.5-16.9-3.86-42.9,1.18-44.4,23.1-1.02,113-4.68,225-6.08,338,1,29-0.718,58.3,3.06,87,7.37,22.6,37.5,35,57.8,23.9,16.8-13.5,8.17-37.8,10.1-56.5,0.948-38.2,1.9-76.4,2.84-114zm387-109c1.19-34.4,3.15-68.9,3.86-103-5.08-19.7,1.74-41.3,25-37.6,54.9-7.82,111-10.3,166-1.08,18.5,1.36,37.2,7.92,55.5,3.16,20.6-9.15,28-43.1,5.9-55.4-26.3-16-58.1-15-87.6-18.7-59.7-4.6-119,4.88-178,12.2-19.6-2.11-50.9-12.4-58.5,14.8-5.38,22.2,1.8,44.9,0.456,67.4,0.569,28.3,1.4,56.6-1.54,85-4.65,58.1-6.67,116-5.69,174-0.028,38.9-1.05,84.1,27.6,113,27.5,22,64.3,22.6,97.6,25,46.7,1.19,93.4-2.9,140-1.68,19.1-0.226,44.7-5.82,48.7-28.9,7.41-24.4-14.3-44.8-37.4-39.6-58.9,1.1-118,3.98-177,4.68-26.5,2.12-31.3-28.1-30.4-49.1-1.54-30.7-3.12-61.8,1.27-92.2,6.84-8.58,19.6-4.74,29.2-7.14,63.1-6.49,126-11.8,190-17.1,27.3,0.758,41.8-35.2,22.5-55-22.2-19.3-53.1-8.74-79.2-7.48-52.6,4.81-105,9.24-158,13.7zm-3190,101c-14.8-29-19.6-62.2-29.4-93.4-22.3-85.3-35.8-173-59.2-258-4.41-34.3-37-65.7-70.8-49.6-38.8,18.8-46.2,67.9-56.9,106-21.4,90.5-40.6,182-70.7,270-16.7,55.3-33.1,113-28.1,171,10.6,40.8,77,40.7,86.1-1.45,13-40.9,18.3-83.8,30.2-126,16.1-68.5,36.7-136,52.4-204,0.756-27.9,4.08,0,7.09,11.5,21.5,102,48.3,202,80.9,301,9.11,35.4,52.7,52.1,80.6,29,33.9-29.2,43.6-76.7,61-116,29.4-78.5,54.5-159,85.8-237,9.08,30.3,12.4,62.4,19.2,93.4,16,79.7,32,160,53.7,238,7.61,28.8,34.4,56.2,65.1,46,32.2-4.34,36.4-44,27-70-38.8-126-72.6-254-87.7-386-7.94-41.7-12.1-88.1-39.6-121-23-26.7-68.1-13.4-80.3,18.3-21.2,47.2-26.6,99.9-43.1,148-24.9,77.4-54,154-83.3,229zm1900,105c1.32-75.1,12.6-149,14-225,3.25-87.2,3.54-174,2.61-261-5.65-40.6-74.4-44.5-82.4-3.4-5.57,36.1-3.22,72.9-4.31,109-1.42,127-10.7,253-15.7,379-4.13,29.4,3.63,66.6,34.4,76.6,32.2,9.8,66.1,3.51,99.1,4.08,78-4.08,156-16.9,231-40.6,21.4-6.49,42.3-27,36-52.1-4-27.1-33.8-37.6-56.8-30.9-84.3,22.8-170,44.4-258,44.4z" fill="#324889"/>
<path style="enable-background:new;" d="m4240,4720c5.6-2.9,23.9-16.9,36.1-27.6,25.6-22.5,66.8-70.7,74.9-87.5,4.6-9.55,2.16-18.3-5.13-18.3-9.46,0-32,17.7-65.8,51.9-22.9,23.1-34.8,39.8-48.1,67-4.93,10.2-5.46,12.9-3.01,15.4,2.21,2.29,5.26,2.03,11-0.934zm-923-0.152c11.6-6.55,47.7-36.6,64.1-53.5,14.1-14.4,32.7-38.6,43.2-56,6.89-11.5,7.44-18.9,1.65-22-8.54-4.59-13.2-1.46-54.5,36.4-13.2,12.1-26.7,25.4-30.1,29.6-14.6,18.2-25.1,34.9-32.9,52-5.65,12.4-6.34,15.3-4.1,16.9,2.1,1.6,5.54,0.694,12.6-3.3zm-75.9,133c-4.91-4.64-9.35-19.3-10.6-35-1.14-14.3-1.47-14.6-11.3-9.45-12.3,6.45-60,25.1-83.4,32.7-29.7,9.57-45.3,12.3-69.3,12.4-19.4,0.072-28.5-0.919-52.5-5.74-50-10-74.1-27.3-86.6-61.9-5.26-14.5-6.74-23.7-6.76-41.2-0.012-17.9,1.19-24.4,7.15-38.5,2.15-5.08,4.64-11.8,5.54-15,1.73-6.18,10.5-20.5,21.1-34.5,7.95-10.5,28.5-31.3,39.2-39.7,36.8-28.8,80.4-49.6,121-57.5,9.1-1.77,15.4-2.26,29.6-2.29,33.5-0.07,58.7,6.77,66.5,18.1,10.3,14.9,8.68,55.7-3.46,89.7-7.96,22.3-24.1,52.8-31,58.4-4.22,3.44-9.93,4.68-22.1,4.77-10.6,0.082-11.2-0.043-14.6-2.74-1.97-1.56-4.59-4.99-5.82-7.64-1.98-4.24-2.17-5.86-1.66-13.8,1.11-17,8.88-41.7,18.5-58.5,2.61-4.59,8.38-12.3,12.8-17.2,11.5-12.7,12.4-15,7.77-20.9-13-16-61.5-16.5-100-1.09-29.9,11.9-62.7,45.3-74.7,75.9-7.67,19.6-14.1,50.4-13.3,64.2,0.677,12.1,6.9,24.7,20,40.6,12.9,15.6,27.4,25.7,46.5,32.8,7.71,2.83,7.96,2.85,33.3,2.8,21.9-0.04,27.3-0.377,38.3-2.4,22.3-4.09,38.8-9.92,72.2-25.5,7.44-3.47,25.1-14.5,32.7-20.5,8.37-6.58,11.8-11.5,16.9-24.4,5.6-14,23.4-50.3,31.1-63.7,9.85-17,18.4-27.7,39.7-49.7,33.9-35.1,71.6-63.6,103-77.8,8.05-3.66,10.6-4.36,16.2-4.38,13.8-0.05,25.7,4.19,30,10.7,7.11,14.6-6.24,24.9-6.85,35.3,0,2.99-12.6,21.9-24.6,36.8-26.4,32.9-63.7,69-110,107-28.3,23-31.4,27.2-37,49.9-3.69,14.8-3.75,22.4-0.167,22.9,6.27,0.922,17.8-10.1,38.4-36.8,25.7-33.2,36.5-40.7,55.2-38.3,7.74,1,10.2,3.59,17.5,18.2,9.83,19.6,16.3,25.7,28.5,26.8,12,0.98,24.3-3.29,37.4-13,7.3-5.38,50.5-41.2,64.6-53.6,12.7-11.1,20.4-14.9,32.7-16.1,6.88-0.532,18.8-2.34,18.8,5.11,0,4.66-2.68,12.4-9.41,27.4-10.2,22.6-15.6,41.4-15.6,54.3-0.01,8.8,1.23,12.1,5.05,13.8,9.52,4.09,33.1-12.2,73.9-51.4,14.5-13.9,15.8-14.5,30-14.5,11.5,0.301,17.9-1.35,20.9,8.03,1.13,3.55,2.99,11.3,4.13,17.2,3.34,17.4,6.08,20.9,16.6,20.9,14.1,0.026,49.3-21,70.2-41.9,8.35-8.37,10.6-11.8,12.7-19.2,1.65-5.76,3.28-7.3,13.2-12.4,16-8.36,30.5-11,43.6-8,12.5,2.89,37.6,16.7,44.9,24.8,1.66,1.84,4.42,6.37,6.12,10.1,2.76,6,3.1,7.78,3.1,16.1,0.0004,11.8-1.76,17.9-10,35.1-6.76,14-7.35,16.2-4.91,18.4,1.22,1.06,2.41,0.952,6.25-0.535,7.62-2.96,33.2-16.7,39.7-21.3,15-10.7,20-13.8,34.5-21.8,19.7-10.9,54.4-28,77-38.1,42-18.7,69-24.4,77.4-16.4,4.94,4.75,2.77,18.1-4.03,24.6-3.69,3.57-10.5,7.07-22.4,11.5-13.9,5.22-28.7,12.1-54,25.3-32.4,16.8-36.1,19.8-37.6,30.1-2.92,20.2,20.7,28.1,55.7,18.7,35.4-9.54,80.6-32.2,99.7-50,5.46-5.09,6.96-7.9,17.1-31.9,10.8-25.5,25.5-51.8,41.5-74,10.3-14.3,36.4-41.9,52.9-56.1,28.8-24.7,64.6-47.4,81.6-51.9,9.64-2.53,21.7-1.67,29.8,2.14,8.17,3.83,10.4,7,10.3,14.9-0.096,20.8-24.1,57.4-66,101-23.3,24.2-35.7,35.5-68.2,62.4-39.9,33.1-44.7,40-49,71.6-1.6,11.7-0.998,12.6,6.29,8.53,7.13-3.94,20.6-18.2,35.3-37.2,14.4-18.8,24.4-29.3,30.7-32.5,6.85-3.47,20.4-6.79,25.1-6.13,5.92,0.823,10.1,5.66,16.2,18.9,9.86,21.3,16.3,26.9,31,26.9,4.42,0.01,11.8-0.197,16.3-0.463,9.25-0.536,9.73-0.247,14.2,8.56,4.23,8.28,1.91,12.2-10.5,17.9-9.08,4.17-16.8,5.6-34.1,6.34-26.8,1.14-41.5-1.94-53.3-11.3-8.59-6.75-11.1-7.65-15.4-5.53-1.83,0.903-8.9,7.04-15.7,13.7-28.2,27.4-40.6,36.4-55.6,40.6-9.29,2.56-26.7,1.19-30.7-2.42-4.48-4.09-10.9-26.5-11.2-38.7-0.146-7.49-0.434-8.86-1.93-9.15-0.966-0.193-6.37,2.2-12,5.32s-16.7,8.29-24.5,11.5c-7.84,3.2-20.4,8.8-28,12.4-29,14-58.4,20.3-88.2,19-14.7-0.652-20.6-2.5-39.1-12.2-15.1-7.95-17.7-10.8-19.3-20.8-1.02-6.36-1.58-7.74-3.23-7.99-1.1-0.165-6.26,1.76-11.5,4.3-11.2,5.43-43.6,18.8-56.7,23.4-24.7,8.72-42.8,9.59-48.3,2.32-1.41-1.86-1.93-4.19-1.93-8.63,0-5.42,0.365-6.52,3.32-9.98,10.6-12.4,20.9-37,22.2-53.2,0.576-6.97,0.392-8.27-1.77-12.4-1.33-2.57-4.33-6.07-6.67-7.78-8.24-6.02-15-3.76-42.1,14.1-7.98,5.25-20.6,13.6-28,18.5-33.5,22.1-68.8,36.5-89.4,36.4-14.9-0.055-32-9.45-39.8-21.9-1.78-2.84-4.22-5.44-5.43-5.75-3.28-0.854-7.9,2.03-29.9,18.6-30.5,23-39.6,27.7-57.7,30-22.1,2.69-36.4-3.62-42.5-18.8-0.782-1.93-2.51-9.7-3.83-17.3-1.32-7.57-2.91-14.7-3.53-16-2.2-4.26-6.47-2.87-20,6.48-6.9,4.76-15.5,10.3-19,12.3-8.47,4.86-22.5,9.64-32.3,11-14.8,2.1-46.7,0.77-52-2.17-1.19-0.661-5.88-4.63-10.4-8.82-4.58-4.22-9.17-7.62-10.3-7.62-3.97,0-9.6,4.07-23,16.6-25.1,23.6-37.1,32.4-51.3,37.5-9.5,3.42-26.8,4.36-33.6-1.5zm-1550-178c-12.3-2.18-16.8-11.9-11.6-23.4,3.88-7.78,19.8-19.3,38.7-28.1,11.3-5.24,18.8-6.65,28.5-5.41,14,1.81,16.9,7.17,8.08,25.3-6.79,14-14.1,19.4-25.8,25.2-13.7,6.77-24.8,8.63-37.8,6.34zm-171,43.8c11.4-7.54,44.5-47.6,54.2-65.7,4.27-7.93,9.26-22.9,10.2-30.7,0.578-4.61,0.379-5.66-1.41-7.52-1.15-1.19-3.17-2.16-4.5-2.16-4.19,0-17.7,10.3-29.1,22.3-8.61,9.03-12.8,14.4-19.1,25-18.4,30.5-26.3,46.6-26.4,53.6-0.057,8.19,7.65,10.7,16,5.09zm-184,1.08c15.6-8.69,50.4-51.7,60.7-75,3.76-8.53,6.61-19.3,6.61-25,0-14.8-20.6-4.73-39.9,19.5-8.08,10.1-26.8,41.6-35.4,59.4-5.46,11.3-6.61,17.7-3.81,21.3,1.78,2.23,7.67,2.16,11.8-0.143zm1300,25.8c8.55-4.23,18.9-12.8,22.6-18.5,2.29-3.59,3.03-5.93,3.03-9.6,0-7.72-4.81-10.6-14-8.29-9.66,2.41-24.1,14.6-30.1,25.4-3.67,6.63-3.71,10.1-0.143,13,3.61,2.97,9.9,2.28,18.6-2.02zm-540,103c-2.63-2.18-5.13-10.7-4.59-15.7,0.28-2.58,3.78-11.7,8.22-21.6,14.1-31.1,17.9-40.6,18-45.5,0.093-4.49-0.01-4.66-2.7-4.46-4.77,0.344-55.9,31.4-72.4,44.1-7.45,5.69-30.3,17.4-39.6,20.4-11.4,3.63-40.1,2.55-48.4-1.83-4.72-2.5-12.4-10.9-15.2-16.6-1.15-2.34-2.57-6.58-3.16-9.4-1.79-8.67-0.318-9.16-35.4,11.8-35.2,21.1-50.2,28.2-69.5,33.4-20.5,5.45-37.6,2.03-42.4-8.48-1.44-3.14-1.63-5.3-1.05-12,0.613-7.19,0.489-8.27-1.02-8.87-1.03-0.411-6.36,1.32-13.4,4.32-25.6,11-29,12.1-39.1,12.7-11.2,0.639-30.8-1.15-37.2-3.39-6.39-2.26-11.1-6.69-19.2-18.1-3.88-5.47-9.82-12.9-13.2-16.3-10.9-11.4-16.9-11.2-35,1.27-24.5,16.8-45.7,28.7-58.1,32.5-16.8,5.25-54.5,5.56-72.8,0.618-15.2-4.12-23-10.4-28.7-23.1-5.95-13.3-6.29-13.9-8.07-15-2.35-1.53-5.69,0.14-26.4,13.1-40.6,25.5-53.3,29.6-88,28.4-20-0.656-30.3-2.59-40-7.48-9.57-4.83-15.7-11.6-21.4-23.6-5.81-12.2-6.53-12.3-20.3-5.36l-9.74,4.97c-5.16-4.1-11.8-10.6-12-17,0-3.32,0.685-4.6,4.38-8.12,2.41-2.3,7.89-6.18,12.2-8.63,13.3-7.57,17.4-12.7,17.4-21.6,0-13.3,11.3-48.6,23.9-74.7,7.52-15.6,14.9-27.5,28.5-46.3,42.8-59.1,66.9-78.4,92.7-74.2,20.8,3.34,24.9,9.47,21.6,32.2-4.74,32.6-23.6,68.1-58.3,110-9.71,11.7-32.9,36.4-55.1,58.6-6.19,6.19-11.2,11.6-11.2,12,0,0.451,1.53,4.32,3.41,8.58,6.04,13.8,15.6,21.8,29.4,24.6,9.17,1.87,32.6,0.729,42.7-2.09,10.6-2.95,24.7-10.2,31.5-16.2,6.61-5.81,16.7-12.8,23.3-16,6.4-3.15,8.22-6.52,9.04-16.7,1.31-16.3,8.81-41.3,19.1-63.7,20.5-44.7,64.7-103,92.3-122,10.4-7.25,14-8.57,23.2-8.55,15,0.034,27.3,3.53,30.5,8.69,2.56,4.06,2.96,14.4,1.02,26.7-5.09,32.1-21.3,63.1-53,102-4.95,6-22.8,25.4-39.8,43.2-16.9,17.7-30.8,32.8-30.8,33.4,0,0.65,1.61,4.7,3.58,9.01,8.13,17.7,21.4,25,45.4,24.7,22.3-0.234,36.2-4.85,56.1-18.7,5.71-3.95,19.2-12.8,29.9-19.5,10.7-6.76,23.2-14.8,27.8-17.8,11.3-7.53,14.2-8.63,22.8-8.63,14.1,0,21.4,3.02,26.6,10.9,1.47,2.27,5.01,11.1,7.86,19.7,6.43,19.3,10.9,28.4,15.3,31.1,5,3.09,16.2,2.66,25.7-1.01,10.6-4.07,24.6-11.5,30.5-16.1,2.75-2.17,11.5-7.23,19.5-11.3,7.98-4.03,17.6-9.51,21.5-12.2,12.5-8.77,32.4-20.2,63-36.2,48.2-25.2,61.8-30.5,81.5-31.3,12.9-0.53,15.7,0.322,17.3,5.15,1.43,4.46-0.043,10-3.6,13.7-1.74,1.77-15.8,10.9-31.2,20.2-15.4,9.38-36.1,22.7-46,29.7-9.9,6.91-24,16.4-31.4,21.2-15.3,9.87-20.1,13.9-20.1,16.9,0,1.85,0.476,2.03,3.92,1.56,5.74-0.798,38.9-18.6,67.8-36.3,17.8-10.9,37.4-15.4,46.8-10.6,4.7,2.38,5.21,4.02,5.38,17.2,0.225,17.1,5.75,28.3,15.2,31,5.34,1.49,11.7-0.628,19.1-6.36,2.96-2.3,6.73-4.78,8.38-5.51,1.65-0.726,13.6-8.7,26.5-17.7,84.6-59.1,88.6-61.6,99.9-63.8,2.96-0.568,9.07-1.03,13.6-1.03,23,0,29.6,10.1,21.3,32.7-4.66,12.8-14,32.6-19.1,40.9-9.51,15.3-5.59,14.2,24.4-6.38,32.7-22.5,46.1-29.3,64.3-32.6,23.8-4.3,36.3,2.33,48.2,25.5,8.86,17.3,15.2,23.9,23.2,23.9,5.48,0,8.74-1.36,14.8-6.2,8.37-6.68,17.9-12.2,45-26.5,85.7-44.9,127-58.2,140-44.9,2.71,2.81,2.9,3.49,2.35,8.29-1.44,12.6-8.27,18.6-30,26.5-20.1,7.25-66.3,29.8-79.5,38.8-8.76,5.97-13.3,15.9-11.2,24.1,1.39,5.21,7.63,10.7,14.7,12.9,13.3,4.14,31.4,1.71,59.1-7.88,27.3-9.45,44-17.5,59.7-28.9,18.9-13.6,23.5-19.2,28.3-34.5,6.77-21.4,38.1-54.8,62.6-66.9,11.2-5.55,18.1-6.93,32-6.42,14.2,0.52,19,2.26,24.8,9.02,4.68,5.4,5.71,8.09,5.7,14.9-0.03,16.4-16.7,35.8-52.2,60.8-15.1,10.6-20.8,16.1-20.8,20,0,4.42,5.26,9.56,11.9,11.6,13.4,4.14,27.3,3.22,53.3-3.56,8.64-2.25,15.9-4.09,16.2-4.09,1.47,0,8.93,8.11,10.6,11.5,2.92,5.94,2.51,7.55-2.84,11.1-12.4,8.25-33.1,16.4-52.1,20.6-10.8,2.37-15.1,2.77-30.1,2.83-15.7,0.057-18.2-0.176-24.1-2.3-9.61-3.44-14.4-7.03-23.9-17.7-8.03-9.09-12.2-12.6-15.2-12.6-0.73,0-3.7,1.85-6.6,4.11-6.71,5.23-35.3,20.1-44,22.9-3.65,1.17-12.7,5.11-20.1,8.78-15.9,7.83-25.5,11.3-40.5,14.6-15.8,3.47-31.8,4.96-46.3,4.33-15-0.654-19.5-1.93-35.7-10.1-18-9.13-23.5-14.9-23.5-24.8,0-5.15-2.26-7.78-5.89-6.86-1.43,0.364-7.2,2.95-12.8,5.74-12.7,6.33-19.9,8.53-27.8,8.53-13.2,0-22.8-5.76-42.4-25.5-15.6-15.7-18.7-17.6-27.1-17-9.93,0.746-43.5,19-63.5,34.5-16.3,12.8-40.9,29.2-47.2,31.6-9.87,3.83-29.3,5.55-32.5,2.87zm-964-145c46.1-4.21,59.5-6.32,63.4-9.99,3.61-3.39,4.29-9.12,4.07-34-0.307-34.7-1.94-39.7-16.5-51.9-15.3-12.8-27-16.9-37.8-13.7-8.81,2.7-14.4,7.99-23.9,22.6-15.1,20.4-27.3,45.6-42,63.7-5.62,6.79-10,15-10,18.9,0,1.36,1.32,3.84,2.92,5.5,3.84,3.98,3.65,3.99,59.9-1.14zm-161,137c-4.02-3.07,0.446-19.6,14.8-54.9,11.2-27.4,11.9-31.6,5.58-33-4.99-1.14-6.16-4.3-6.27-16.9-0.076-8.88,0.281-11.9,1.76-15,2.65-5.62,7.85-9.62,16.5-12.7,12.7-4.51,19.7-8.6,24.5-14.2,5.9-6.99,13.9-21.3,29.4-52.2,17.6-35.2,25.6-49,34.6-59.4,6.5-7.59,7.27-10.3,4.67-16.4l-2.14-5.02,3.94-3.82c3.7-3.58,11.8-7.08,16.4-7.08,2.61,0,12.4-5.31,20.1-10.9,8.48-6.15,25.9-15,37.3-19.1,18.7-6.64,30.5-2.68,27.4,9.25-0.568,2.19-3.72,7.68-7.01,12.2s-5.98,9.18-5.98,10.4c0,2.38,0.444,2.58,24,11.1,16,5.79,22.4,9.03,24.4,12.2,2.39,3.82,6.29,19.3,7.62,30.2,1.01,8.32,0.995,11.9-0.077,19.1-1.1,7.32-1.1,9.79,0.016,14.6,0.735,3.21,1.6,13.8,1.93,23.6,0.652,19.5,0.773,19.9,7.26,23.3,6.16,3.26,6.52,10.9,0.671,14.2-1.7,0.961-4.38,2.84-5.96,4.17-2.76,2.32-2.87,2.78-2.87,11.3,0,14.9-4.78,44.1-9.91,60.3-1.73,5.48-3.08,12.4-3.46,18.1-1.64,23.4-15,38.5-31.7,35.6l-4.11-0.721,0.861-49.4c0.474-27.2,0.816-51.7,0.762-54.4-0.151-7.44-1.44-8.43-9.86-7.62-13.4,1.3-40.2,5.91-69.6,12-52.4,10.9-58.4,12.8-64.8,20.2-9.41,11.2-32.5,53.4-35.7,65.4-2.65,9.81-10,21.3-15,23.3-2.02,0.849-2.02,0.865-0.055,1,2,0.139,2,0.139,0,1.03-2.45,1.09-28.6,1.31-30,0.244z" fill="#5e786e"/>
<path d="m449,886c0,55.4-51.8,100-116,100-63.8,0-116-44.9-116-100,0-55.4,51.8-100,116-100,63.8,0,116,44.9,116,100zm-2880-38.2c0,71.2-50,129-112,129-61.7,0-112-57.8-112-129s50-129,112-129c61.7,0,112,57.8,112,129zm2210-989c0,100-72.5,182-162,182-89.4,0-162-81.3-162-182,0-100,72.5-182,162-182,89.4,0,162,81.3,162,182zm-1090-430c0,121-91.4,220-204,220s-204-98.4-204-220c0-121,91.4-220,204-220s204,98.4,204,220zm2630,744c-87.3,16.1-172,72.7-233,154-19.1,25-46.6,71.8-31.1,109,12,28.7,53.2,32,75.3,29.4,88.5-10.8,177-66.4,240-147,17.1-22.1,40.3-53.2,42.2-86.3,3.62-60.7-61.1-64.2-93.5-58.3m-4650,157c-34.8,14.2-24,89.2-16.9,121,17.6,79.5,57.8,152,107,204,19.3,20.5,47.3,48.2,74.2,36.4,38.7-17.1,27.2-85,17.7-122-20-77.8-57.1-155-108-206-18.6-18.6-49.1-43.8-74.2-33.7m4590,219c-33.7,5.72-66.4,7.34-97.2,29.4-13.7,9.79-28.8,26.9-26,49.3,3.3,25.2,25.4,38.8,41.9,48,43.3,23.9,95.2,25.2,141,17.2,26.7-4.62,104-30.2,83.6-83.5-6.55-16.9-19.8-26.5-32.3-34.6-31.6-20-76.1-31.8-111-25.6m-4750,81.7c-47.9,11.7-19.8,80.4,0.157,108,38.2,52.8,91.7,101,146,119,16.7,5.5,37.8,13.9,54.8,8.13,52.8-18,17.4-86.5-5.46-118-43.6-60.2-128-134-196-117m467,9.97c6.73,18.6,20.8,32.9,31.6,47.8l61.8,88.7c53.5,80.2,102,167,139,261,109,269,111,591,35.9,876-21.9,82.8-48.4,164-77.4,243l-44.5,111c27.2-15.6,53.2-57.2,74.2-84.1,59.2-76,112-160,155-252l49.5-116c3.43-8.83,10.6-35.3,19.3-36.8,8.67-1.7,21,29.1,25.3,36.8l68.2,116c64.7,107,139,202,212,298l67.1,85c9.13,10.2,16.8,23,28.3,28.7-5.74-31.1-35.5-65.9-49.5-93.1-33.9-66.4-64.8-136-93.1-207-104-258-166-570-69.6-850,17.6-50.6,40.6-99,66.8-143,48.6-81.9,107-155,172-216l74.2-64.8c13.6-11.2,30.7-21.3,40.6-37.9-36.2,8.02-74.9,44.2-108,65.5-94.5,60.9-189,131-272,216l-101,105c-7.61,8.67-26,36.8-37.1,34.6-12.8-2.65-26.1-31.8-34.1-43.8l-80.7-109c-80.2-103-164-200-258-283-28.6-24.8-63.2-69.4-97.2-79.5m1060-3640c-28.8,8.83-40.8,59.6-46.6,92-16.2,90.7-8.07,188,17.1,276,9.12,31.3,37.3,99.4,70.1,90,26.5-7.64,41-60.2,45.9-90,15-89.2,11.9-198-16.1-283-11.6-35-34.3-96.2-70.3-85.2m959,58.5c-48.4,11.3-21.9,103-6.31,138,33.9,76.2,85,150,146,191,21.2,14.5,49.5,32.4,74.2,25.6,53.7-15.1,17.5-110,3.07-147-29.3-72.9-79.3-136-134-178-24.6-18.8-53.7-36.6-83-29.8m-1800,114-26.5,7.84c-55.3,30.4-4.24,128,18.7,166,52.3,87.2,122,162,200,207,26.9,15.7,65.4,37.2,95.4,30.2,76.3-17.7,30.6-124,1.54-174-50.4-86.3-122-165-200-209-26.9-15.3-59.9-34.2-90.1-28.9m1390,30.3c-24.9,9.59-32.2,49.3-35.7,78.2-9.15,72.5-1.87,155,20.7,223,9.26,28,30.9,83,61.1,71,23.5-9.31,31.1-50.4,34.6-77.8,9.59-73.4,4.91-155-20-223-9.52-25.8-32.3-82.1-60.4-71.4m1210,51.7c-19.8,4.42-36,26.7-47.3,46.7-26.9,46.9-45.2,104-52.3,161-3.41,28.3-5.62,94.6,29,90.2,19.1-2.41,33.9-25,45.4-42.5,31.6-48,49.5-109,55.8-170,2.74-26.9,3.18-92.9-30.6-85.2m-267,67.7c-43.5,8.81-79,59.4-105,101-65.7,106-110,248-121,381-4.47,53.4-6.85,119,16.8,166,11.5,22.8,29.3,43.6,51.8,40.5,43.3-5.89,79.5-56.7,105-97.3,67.7-106,116-250,124-388,3.71-65.1,8.71-219-72.3-204m-1510,417c6.24-36.8-25.1-90-38.9-120-50.7-111-132-218-224-269l-37.1-15.6-26.5-3.37c-62.2,7.54-39.4,121-24.7,167,9.91,30.7,22.6,60.5,36.4,88.7,22.6,46.7,49.6,89.4,78.6,129,39.6,54.8,89,108,143,138,26.9,14.7,60.2,29.4,86.6,5.02,21-19.4,32.5-96.8,7.14-118m823-387c-72.4,8.65-54.4,148-41.2,208,29.5,134,90.6,256,167,355,31.3,40.1,76.3,88.9,124,81.3,22.8-3.57,36.6-30,42-56.3,10.4-49.9,1.93-105-7.9-154-26.7-133-89.7-256-165-353-28.3-35.9-75.4-85.9-118-80.6m-449,40.7c-28.3,6.48-49.5,32.9-68.9,58-50.5,65.3-88,164-100,254-5.67,42.1-14.5,157,40.3,150,31.4-4.14,61-38.3,80.6-67.7,46.1-69,81.8-162,93.6-252,5.46-41.6,10.6-155-45.2-142m1600,74.4c-87.1,16-175,124-219,217-17.2,36.6-49.5,135,3.18,151l26.5,0.997c27.2-2.56,55.1-22.3,77.7-40.7,56.5-45.6,109-112,143-186,18.2-40.5,46.1-129-10.1-142l-21.2-0.084m-2900,230c-30.4,6.16-48.8,43.6-39.4,80.8,12.9,50.8,45.9,90.5,74.7,127,62.7,79.7,151,135,235,166,40.3,15,89.4,24.1,131,10.3,29.3-9.81,41-44.5,33.7-80.6-9.65-47.3-41.5-88.7-69.1-120-93.1-105-237-210-366-184m-375,38.2-23,7.89c-59.4,35.3,10.3,127,37.1,159,54.4,65.3,123,111,194,138,31.8,11.7,68,20.9,101,10.6,71-22.3,11-124-19.4-159-56.5-64.6-123-115-196-142-29.7-10.9-62.5-20.4-93.6-14.6m3970,22.4c-90.1,18.1-180,114-237,201-18.7,28.9-71.2,121-17.2,138l15.9,2.69c25.1-0.618,49.8-13.8,72.4-26.1,67-36.8,131-104,177-176,16.1-25.4,34.8-55.4,39.4-88.7,3.66-26.1-7.63-49.7-29.2-52.1l-21.2,0.786m-445,14.6c-40.3,7.43-77.9,34.2-111,62.6-64.5,55.2-124,128-164,214-21.9,46.7-62.9,168,5.3,187l33.6,1.32c33.4-3,67.3-26.7,95.4-48.4,73-56.3,139-140,180-237,21.4-49.3,59-168-12.6-181l-26.5,0.291m-1150,283,17.4,97.7c7.03,93.1-0.919,187-18.6,278l-27.7,123c-2.6,9.94-14.2,34.6-9.8,44.5,3.53,7.91,16.7,7.4,22.8,7.8l65.4,4.56-1.77-425-1.77-93.1c0-8.24,2.81-28-2.83-33.7-7.97-8.1-33.4-4.23-43.1-2.67m-1480,16.5c-8.66,5.67-39.6,46-32.5,60l24.6,15.5,61.8,46c63.6,50.6,122,106,175,174l59.4,88.7c5.94,9.24,14.6,27.2,25.4,20.8,17.3-10.5,32.9-31.8,47.7-47.1,4.58-4.71,13.3-10.9,14.1-19.2-5.83-29.1-41.7-71-56.5-87.4-64.5-72.1-134-127-208-181l-81.3-56.3c-7.14-4.6-21.2-18.3-29.3-12.9m3500,57.1c-89.7,20.4-180,114-237,201-16.8,25.6-38.2,60.2-38.5,95.5-0.159,19.5,4.13,38.3,21.2,42.5,39.8,2.98,80.7-18.1,111-39.6,59.4-41.8,114-99.4,157-166,14.6-22.8,33.4-53.4,35.3-84.1,1.59-25.4-8.3-48.6-29.9-49.9l-19.4,0.964m-4720,2.5c-22.1,5.5-36.9,35.7-27.7,62.4,12.9,37.2,45,70.3,70.1,93.8,65.7,62.2,147,103,226,126,36.7,10.4,80,18.6,117,2.78,27.4-11.9,35.2-40.1,20.5-71.8-17-37-44.2-65.3-71.7-88.7-81.8-70.1-182-125-281-125l-53,1.07m4220,72.6c-41.5,8.35-77.4,48.4-106,85.4-67,86.1-118,198-144,315-9.96,44.9-17.1,97.7-5.42,143,8.34,32.4,30,58,57.6,54.1,39.9-5.52,79-48.8,106-83.7,69.1-88.7,121-199,148-320,13.2-61.3,25.8-211-55.8-195m-3640,37.8-21.2,7.86c-62.7,37.2,14.9,122,44.2,150,65.7,60.9,144,101,223,127,38.3,12.3,84.8,21.9,124,6.48,26.1-10.4,37.6-37.5,22.8-68.6-17-35.9-44.3-68.1-70.5-92.7-60.1-56.5-139-92.9-210-116-35.2-11.3-75.1-20.3-111-12.9m2280,580c30-9.09,55.8-55.6,74.9-84.1,30-44.7,64.8-84.1,102-120,114-110,246-177,382-228,23.8-8.92,24.7-44,26.7-71.2,0.654-8.85,3.53-20.5-0.689-28.7-7.53-14.5-36.7-1.88-47.2,0.835-47.5,12.4-95.8,27.6-141,49.5-134,64.6-292,160-364,329-20.7,48.8-22.6,97.5-32.3,150m2130-350c-117,19.8-231,90.7-320,193-24.9,28.9-54.1,64.4-64.7,106-9.45,37.2,7.37,68.6,38.2,70.5,128,7.45,261-86.1,355-191,44.5-61.3,87.4-141,44.2-170-17.3-7.75-35-7.34-53-7.91m-4910,22.9c-44.5,7.51-124,4.62-146,69.4-7.37,21.9,3.16,41,14,56.7,23.8,35.3,58.3,57.4,91.3,74.9,112,59.4,247,89.8,367,59.6,28.1-7.1,85.7-21.7,94.7-64.2,11.9-56.1-55.8-98.4-85.9-118-73-46.7-156-65.9-237-76-32-3.99-67-8.61-98.9-3.2m963,106c40.8,7.73,83.4,45.6,118,72.3,91.3,70.1,169,152,247,243,22.6,26.3,44.2,57.2,62.9,88.3,8.92,14.7,17.8,37.9,32.5,43.2,6.36-30,29.2-75.4,24.2-107-1.87-12-10.8-20.9-16.8-29.6l-46.3-61.3c-68.7-88.5-153-164-240-219l-106-67c-10.5-6.31-30.6-23.2-42.4-20.1-13.4,3.53-29.2,41.8-33.6,57m4290,156c-84.3,14.3-158,31.5-231,90.9-14.6,11.9-27,26.1-38.5,42.3-12.8,23-6.64,44.7,12.1,57.2,23.5,15.9,51.8,17.5,77.7,15.2,79.5-7.01,168-36.6,235-94.8,13.5-11.8,47.5-42.3,46.6-66.6-0.512-12.4-11.2-23-18.4-29.6-21.6-19.5-57.8-19.3-83-15m-5600,7.1c-67.7,11.5-133,16.6-196,54.3-20.1,11.9-54.4,36.1-57.9,67.5-4.35,38.3,35.3,60.9,57.9,71.2,64.7,29.1,148,27.2,216,16.8,53.2-8.19,111-23.9,157-59.6,16.7-12.8,41-32.4,42.2-60.2,1.35-31.1-26.9-50.8-45.8-61.6-49.5-28.3-120-37.2-173-28.3m839,315c64.5,12.2,130,47.8,193,72.7,93.6,37.5,193,72.3,279,133,27,18.8,55.5,37.7,77.6,65.7l22.1,44.5c14.5,2.83,49.3-71,49.5-79.1-0.477-13.4-16.7-30-23.7-38.6-29-35.7-67-57.8-102-80.2-110-69.9-233-113-352-151l-74.2-24.3c-10.2-2.89-23.5-8.37-33.6-2.26-14,8.54-28.8,42.7-35.3,60.5m-399-15.2c-74.7,12.6-149,22.8-217,69-23.7,16-60.4,44.5-58.1,84.6,2.6,44.9,47,63.3,74,74.9,78.1,33.5,174,28,254,15.2,60.1-9.35,125-31.8,177-72.5,17.5-13.7,47.2-44,43.8-74.5-3.78-34-39.6-57-61.5-67.9-63.1-31.3-145-40.1-212-28.7m4730,72.9c-62.9,10.6-122,17.3-180,55.2-17.8,11.7-52.1,38.8-42.4,71,14.3,47.3,68.9,65.1,102,77.3,103,37.9,214,36.1,320,15.6,40.6-7.89,86.4-26.1,120-56.5,31.8-28.7,32-65.9,0-95.1l-31.8-22.6c-66.6-39.2-142-46.2-214-46.2l-74.2,0.964m-4420,57.2c-23.7,5.94-33.4,54.5-36.9,80.4-11.3,82.4-5.55,169,15.2,248,6.45,24.5,26.5,90.2,53.5,82.1,22.8-6.79,34.3-54.3,38.5-79.7,13.4-81,5.09-170-15.5-248-7.05-26.5-26-90-54.8-82.8m3230,176c42.4-0.16,86.6-14.8,129-20.1,99.6-12.4,200-18.6,300-18.6,52.6,0,114-5.54,164,15.3,38.5,15.8,72.1,56.3,106,83.7l132,112c9.54,8.37,40.3,29.8,49.3,8.21,6.61-15.9-27.6-53-35.2-62.6-41.9-53.9-90.3-110-124-173,39.2-12,83.9-2.32,124-0.0898,47.5,2.67,102-2.72,148,11.5l-26.9-59.1-11.4-29.6c-10.5-10.1-37.3-6.2-50.2-6.92l-120-4.45c-191,0-380,14-571,25l-124,18c-15.7,2.16-42.4-1.11-56,9.84-16.3,13.2-31.4,69-32.3,92.7m-3420,55.1c-67.8,11.9-143,48.2-196,104-13.7,14.5-33.7,36.4-36.6,60.2-3.92,34.6,34.4,46,54.2,45.1,72.1-2.3,151-47.1,207-105,15.2-15.9,38.7-41.8,38.2-69.9-0.495-35.5-47-38.8-66.4-35.5m4420,107-33.6,7.05c-27.7,12-33.6,42.5-20.7,73.8,18.7,45.1,54.2,84.3,84.3,117,67.7,73.4,159,122,244,153,40.8,15.1,88.7,27.2,131,13.4,31.8-10.4,42.8-40.7,28.6-78.6-15.2-41-44.2-74.5-71-103-71.9-74.9-158-129-247-162-35-12.8-78.4-26.9-115-20.8zm-2050,2510c9.24-13.5,19.1-37.2,33.6-80.6,7.7-23.2,20.3-60.5,28.3-83,53.5-155,106-361,136-537,29.3-173,36.7-269,36.9-493,0.0883-78-0.632-130-2.12-152-20.5-309-103-609-246-892-43.6-85.9-80.7-148-89-148-5.14,0-16.3,14.7-42.4,55.6-40.1,63.1-66.1,113-102,195-56.5,131-92.8,245-116,366-20.7,107-27.2,183-28.8,331-1.66,165,4.56,261,25.3,396,31.3,200,86.6,403,177,651,45.4,124,110,278,149,355,23.3,46,29,50.8,39.4,35.3zm25.1,136c-23.7-28-44.2-50.8-45.4-50.8-1.22,0-5.12,3.29-8.69,7.32l-6.48,7.32,3.76-9.51c2.07-5.24,3.76-10.9,3.76-12.6,0-3.9-16.9-27.6-84.8-119-80.4-108-130-178-191-265-61.1-90.2-126-194-154-243-8.74-15.9-22.1-39.2-29.5-52.1-23.7-40.1-49.5-87-82.7-150-51.8-98.4-69.8-128-76.8-128-5.67,0-12.2,9.64-17,25-7.16,23.2-42,116-68.4,183-27.7,70.3-34.1,83.9-90.8,198-44,88.7-47.7,95.9-64.8,125-7.44,12.5-21.4,37-30.9,54.5-44.3,80.6-112,182-208,309-53.9,71.8-91.2,119-95,119-1,0-1.23-2.19-0.53-5.1,2.12-8.85,18.4-53.7,33.6-92.9,135-348,223-686,267-1030,14-110,17.8-180,19.8-366,1.77-161-2.6-248-18.9-377-15.2-119-38-239-65.5-344-12.8-49.3-40.8-143-53.2-177-11.4-32-59.2-155-76.7-197-36.2-87.4-85.7-184-152-298-53.5-91.3-89-146-154-234-40.3-55.6-47.9-66.8-42.4-62.6,18.6,14.2,117,102,167,147,35.2,32.4,143,138,173,170,77.7,81.9,163,182,254,300,95,122,151,203,223,322,31.1,51,42.2,67,47.3,67,4.24,0,25.3-22.1,61.1-64.6,104-123,226-250,318-331,39.6-35.5,45.6-42.1,45.6-49.9,0-9.9-8.18-23.9-37.3-64-15-20.6-26.1-36.4-24.6-35.3,28.3,22.8,55.6,53,88,71.4,8.67,4.62,15.5,1.04,43.8-23,44-37.2,102-82.8,158-124,66.4-49.1,200-138,281-186,46.5-28.3,50.2-29.6,22.6-8.46-68.2,52.1-170,139-196,167-70.1,77.3-156,145-210,241-9.26,17.7-7.26,25.2,10.9,41,49.6,42.9,191,200,276,309,69.6,88.3,178,243,221,315,16.3,27.8,23.3,36.1,28.6,34.6,5.62-1.83,26.7-23.9,62.9-65.9,104-86.3,221-202,313-276,95-75.1,176-133,265-189,72.4-46.2,152-93.3,154-91.3,0.405,0.521-3.07,3.79-7.74,7.25-17.8,13.3-107,86.7-129,106-111,99.2-216,219-293,340-231,357-286,786-165,1290,32.3,135,73.7,261,137,421,43.3,108,83.9,194,93.6,198,4.86,1.98,8.74-3.5,25.3-35.5,34.8-60,78.8-170,101-240,48.1-140,64.9-280,52.3-430-11.1-130-50.5-240-130-370-60.5-99-142-196-234-278-9.45-8.43-17.6-16.3-18.2-17.5-4.38-9.13,133,76.4,212,131,60.4,42.5,123,92.9,194,156,38,34,41.2,37,114,111,55.8,56.7,65.2,65.7,69.3,65.7,4.7,0,17.8-9.31,75.8-53.9,147-113,261-186,401-256,43.6-22.1,100-48.8,101-47.8,0.369,0.475-7.47,5.32-17.4,10.8-31.4,17.2-91.3,54.1-119,73.2-127,88.3-216,184-270,291-104,205-81.3,445,69.1,736,45.8,88.7,130,223,182,294,13.5,18,15.6,21.7,10.7,18.4-20.1-13.2-122-99.9-157-134-59.7-57.8-146-156-233-263-58.1-71.6-67.8-81.9-78.6-82.4-10.1-0.368-16.2,4.64-21,17.4-11.5,30-76.1,128-125,189-41.3,51.9-112,127-149,159-10.4,8.96-19.4,18-20,20.2-1.19,4.82,4.98,20.7,19.8,50.8,6.18,12.7,11.3,23.9,11.3,24.8,0,0.975-7.88-8.06-17.5-20.1-9.65-12-21.2-24.1-25.6-26.9-7.42-4.64-8.83-4.82-16.5-2.19-4.61,1.58-15.5,8.56-24.2,15.6-34.6,27.6-41.3,32.6-47.7,36.1-8.13,4.36-8.27,4.73,11.5-27.2,20.1-32.6,35.3-62,35.3-68.1,0-2.78-4.75-13.6-10.6-24.1-10.5-18.9-19.6-33.5-72.6-114-33.6-51-83.6-133-108-177-76-136-153-285-212-407-23.1-48-33.7-63.5-40.3-59.1-4.38,3.02-15.7,28-27,59.6-29.7,83-87.3,223-117,287-10.1,21.1-22.3,47.1-26.9,57.8-32.2,73.4-139,252-210,350-37.3,51.7-50.4,73.4-50.4,83.2,0.0406,9.29,12.6,38.3,37.5,86.7,11.7,23,21,42.1,20.7,42.5-0.39,0.502-20.1-22.1-44-49.9zm-2120-1580c3.02,11.4,8.53,19.4,17.7,22.8-2.56-11.7-9.19-18.1-17.7-22.8" fill="#617b71" transform="matrix(0.56603773,0,0,0.45652173,3379.7085,1814.1303)"/>
</svg>
